<svg width="300" height="300" viewBox="0 0 300 300" fill="none" xmlns="http://www.w3.org/2000/svg">
<g clip-path="url(#clip0_241_190)">
<rect width="300" height="300" fill="white"/>
<path d="M158.986 264.97L158.9 218.669L158.954 189.751C159.85 179.808 162.822 170.727 168.243 162.377C170.32 159.278 172.607 156.726 175.234 154.125C178.459 151.354 181.993 149.202 186.066 148.045C190.622 146.813 195.136 147.835 198.577 151.047C202.491 154.986 204.908 159.913 205.877 165.435L206.117 166.394L206.415 167.475L206.523 165.559L208.184 155.767C209.919 149.412 212.155 143.497 215.322 137.69C217.705 133.428 220.376 129.773 223.807 126.374C226.836 123.609 230.034 121.459 233.74 119.979C235.984 119.212 238.224 118.781 240.538 118.77L244.563 119.951C246.679 121.158 248.34 122.606 249.747 124.624C250.985 127.04 251.833 129.624 252.371 132.354L252.798 135.048L252.716 171.897L252.574 208.608C252.906 209.458 252.726 210.238 252.233 210.727L249.427 212.272L229.058 224.158L211.499 234.491L186.39 249.043L164.993 261.581L158.988 264.97H158.986Z" fill="#1D2236"/>
<path d="M190.314 140.98C185.546 141.509 181.371 143.358 177.245 145.855C174.666 147.836 172.426 149.786 170 152.085C166.57 156.377 163.652 160.617 161.078 165.411L157.303 174.362C157.002 175.131 156.758 175.335 156.569 174.439L156.466 156.969C156.363 155.36 156.645 153.87 157.215 152.49C158.063 150.435 159.584 148.729 161.482 147.571L164.749 145.578L169.887 142.583L183.833 134.529L220.566 113.121L235.129 104.568L253.155 94.0092C254.164 93.3945 254.701 93.0935 256.262 92.4001L256.248 119.45L255.814 122.793C254.028 119.3 252.574 116.724 249.689 114.6C247.63 113.399 245.513 112.672 243.155 112.229C239.858 112.179 236.845 112.68 233.829 113.685C231.001 114.858 228.408 116.28 225.711 118.019L220.45 122.689L215.821 127.656L212.334 133.427C209.711 138.464 207.643 143.112 205.738 148.56L204.492 147.328C201.26 142.631 195.914 140.457 190.313 140.982L190.314 140.98Z" fill="#1D2236"/>
<path d="M117.103 125.183C116.751 124.765 116.665 124.575 117.194 124.702C121.355 125.702 125.196 126.409 129.356 126.966C133.571 127.282 137.682 127.348 141.898 126.95C148.587 126.206 154.834 124.416 160.767 121.221C163.419 119.667 165.784 117.927 167.879 115.706C170.514 112.612 172.274 109.287 173.021 105.32C173.287 102.812 173.095 100.493 172.48 97.8693C179.476 99.4023 186.26 99.623 193.115 98.8248C197.027 98.3098 200.733 97.3188 204.341 95.7495C207.679 94.1226 210.541 91.9935 213.012 89.1026C214.884 86.6682 216.162 84.0149 216.795 81.0233C217.227 77.3612 216.726 73.984 215.378 70.5595C213.98 67.7235 212.491 65.5352 210.645 62.7686L216.34 66.2472L239.948 80.6555L252.146 87.9103L251.094 88.9986L233.916 98.9296L203.378 116.811L180.66 130.049L154.861 145.066C153.671 145.775 152.189 145.779 150.994 145.078L147.53 143.045L122.44 128.167L117.101 125.182L117.103 125.183Z" fill="#1D2236"/>
<path d="M93.263 82.5062L102.026 87.8484L110.43 92.2597L117.883 94.3609L120.149 94.338L122.938 94.1613L127.846 92.1954C129.707 90.7199 130.774 89.1294 131.236 86.7526C130.888 85.0741 130.285 83.6181 129.397 82.1307L125.557 78.3443L119.058 73.6879L108.505 67.7242L97.4249 62.6745L98.8412 61.5499L107.374 56.5746L118.586 50.2177C121.032 53.9078 123.351 56.8469 126.324 59.7751C131.017 63.9166 135.807 67.4105 141.362 70.4739C144.459 72.0323 147.322 72.9438 150.609 73.7048C152.995 73.6473 155.195 73.4663 157.455 73.145C159.388 72.2538 161.13 71.355 162.825 70.134C164.587 68.2467 165.325 66.1277 164.478 63.5919C163.053 61.2649 161.432 59.2618 159.592 57.3585L151.491 51.1732L137.64 43.493L133.657 41.2971L141.976 36.54L151.846 30.7742L180.264 47.7707L194.953 56.6093C198.338 58.8543 201.198 61.418 203.971 64.325C205.803 66.5268 207.354 68.7058 208.595 71.2907C209.781 74.5275 210.231 77.6814 209.461 81.0078C208.244 85.0648 205.578 88.2433 201.857 90.2794C197.564 92.6977 192.946 93.8586 188.004 94.2104C180.604 94.6949 173.534 93.4096 166.687 90.9871L162.536 89.2875L161.147 88.8859C164.072 92.2563 165.656 96.1391 166.301 100.673C166.242 102.765 166.033 104.75 165.687 106.76C164.497 109.1 163.235 111.126 161.582 113.172C159.123 115.221 156.633 116.889 153.821 118.318C149.227 120.272 144.511 121.402 139.439 122.038L128.234 122.092C122.912 121.427 117.95 120.292 112.808 118.644C108.276 116.93 104.158 114.943 100.016 112.378L89.6965 106.101L75.0413 97.3178L66.8301 92.4744L56.5261 86.2503L76.948 74.3136C77.7006 73.9847 78.5622 73.9906 79.2657 74.3271L93.2647 82.5045L93.263 82.5062Z" fill="#1D2236"/>
<path d="M121.622 89.7358C120.064 90.0503 118.366 89.9505 116.801 89.6208C115.298 89.2563 113.839 88.705 112.394 88.1503C111.436 87.7732 110.336 87.3217 109.512 86.8541C106.24 84.9355 100.535 81.4865 98.0487 80.0119C96.8616 79.354 95.9365 78.4281 94.8838 77.5065C94.067 76.7734 93.0405 75.9608 92.6321 74.9901C92.0833 73.9154 92.3361 72.4873 93.2105 71.6307C94.1566 70.7344 95.4723 70.2617 96.777 70.2034C99.6232 69.9819 102.394 70.5458 105.009 71.6273C108.731 73.2246 112.279 75.1854 115.721 77.2477C117.667 78.4543 119.618 79.5705 121.362 81.0857C122.353 81.9938 123.563 82.8555 124.346 83.9801C124.988 84.9617 125.275 86.2681 124.865 87.4079C124.399 88.5993 122.862 89.4533 121.648 89.7315L121.623 89.7375L121.622 89.7358Z" fill="#1D2236"/>
<path d="M158.244 67.5883C157.095 69.6235 153.909 69.7089 151.815 69.473C149.37 69.1898 146.77 68.2766 144.697 66.9964C141.477 64.8444 135.827 60.9811 133.391 59.3407C132.511 58.7911 131.888 58.1257 131.163 57.3258C130.676 56.7947 130.157 56.2325 129.764 55.622C128.89 54.3283 129.022 52.8046 129.755 51.5379C130.204 50.8014 130.991 50.2375 131.834 49.9254C134.052 49.0706 136.277 49.4105 138.493 50.0514C139.501 50.3229 140.511 50.6957 141.415 51.1557C145.757 53.3711 149.882 55.9137 153.659 58.9602C154.812 59.9402 155.937 60.9659 156.928 62.1201C158.125 63.555 159.09 65.8016 158.254 67.5688L158.243 67.59L158.244 67.5883Z" fill="#1D2236"/>
<path d="M123.664 154.659C117.004 146.992 109.64 140.694 100.856 135.514C95.3743 132.289 89.9771 130.138 83.9483 128.788C79.8981 127.994 75.8851 127.8 71.8568 128.326C67.2621 128.978 63.1096 130.705 59.2775 133.559C55.7363 136.361 53.1641 139.753 50.8295 143.525C50.8177 143.544 50.8075 143.563 50.7999 143.584L47.0964 152.615C46.9628 152.941 46.4986 152.935 46.3726 152.607L46.2872 152.383C46.2703 152.338 46.261 152.291 46.2618 152.243L46.3794 124.968L46.4369 118.014L46.4597 112.996L46.4884 96.361C46.4884 96.3432 46.4893 96.3263 46.4918 96.3094C46.6474 95.0317 47.2461 93.7042 47.9834 92.6997C48.0181 92.6523 48.0629 92.6143 48.1144 92.5872L48.8771 92.1788C48.9532 92.1382 49.0412 92.1239 49.1266 92.1382L51.9102 92.6143C51.9575 92.6227 52.0023 92.6388 52.0437 92.6633L60.1027 97.4551L79.6588 109.042L95.6271 118.544L116.436 130.861L131.698 139.963L145.3 148.03C145.678 148.254 146.068 148.456 146.461 148.651C148.375 149.601 149.737 151.038 150.601 152.871C151.229 154.204 151.525 155.669 151.526 157.142L151.582 207.748C151.582 207.788 151.576 207.829 151.563 207.868C151.446 208.231 150.929 208.226 150.82 207.859L149.87 204.684C146.685 193.657 142.406 183.12 136.763 173.134C132.862 166.58 128.767 160.562 123.666 154.659H123.664Z" fill="#1D2236"/>
<path d="M122.804 221.903L121.473 211.205C120.374 206.301 118.856 201.696 116.625 197.041C114.384 192.478 111.809 188.457 108.645 184.658C105.987 181.892 103.258 179.422 100.089 177.079C96.5793 174.819 93.0457 173.186 89.0615 172.291C86.0995 171.988 83.1865 172.478 80.6025 174.03C77.7056 175.909 75.8809 178.542 74.5712 181.608C73.8304 184.476 73.2639 187.41 72.7997 190.493L72.6171 196.204L72.475 220.94L73.121 225.04L65.2717 220.418L51.561 212.078L49.0759 210.604L49.3617 208.981L49.5097 178.579L49.5833 172.761L49.8555 168.528L50.0044 165.525C50.3113 161.492 51.085 157.595 52.3212 153.756C54.0326 148.738 56.4813 144.087 60.2829 140.284C62.2362 138.525 64.1835 137.146 66.442 135.958C69.9696 134.278 73.7425 133.456 77.7428 133.624L79.6741 133.672L81.9943 133.975L85.8636 134.68C89.6441 135.837 93.0542 137.209 96.6977 139.064C103.749 142.897 109.878 147.453 115.56 153.035L122.173 160.077C126.13 164.979 129.597 169.94 132.953 175.469C136.845 182.417 139.835 189.373 142.541 196.697L146.664 211.311C147.752 216.975 148.348 222.34 148.704 228.047L148.679 261.85C148.807 264.255 149.162 266.309 149.784 268.509L149.514 269.225L147.147 267.645L134.032 260.036L128.267 256.051C124.939 252.963 122.78 249.107 122.392 244.478L122.496 234.944L122.708 229.44L122.806 221.901L122.804 221.903Z" fill="#1D2236"/>
<path d="M96.9014 232.826L92.5053 233.267L90.2071 233.24C86.8071 232.902 83.6684 231.489 81.4894 228.721C79.1624 226.056 77.8434 222.932 77.5018 219.417L77.6244 202.465L77.7428 193.326L78.6111 187.011C79.4626 184.17 80.6117 181.842 82.5836 179.718C84.0024 178.918 85.3934 178.292 86.9213 177.815L91.2843 178.236C94.1745 179.418 96.7094 180.761 99.2749 182.445C101.965 184.564 104.351 186.81 106.579 189.441C110.226 194.118 112.889 199.115 114.928 204.754C115.92 207.868 116.589 210.821 117.226 214.007L117.796 221.503L103.277 229.989C101.352 231.13 99.2546 231.988 96.9022 232.827L96.9014 232.826Z" fill="#1D2236"/>
</g>
<defs>
<clipPath id="clip0_241_190">
<rect width="300" height="300" rx="112.5" fill="white"/>
</clipPath>
</defs>
</svg>
