<svg width="300" height="300" viewBox="0 0 300 300" fill="none" xmlns="http://www.w3.org/2000/svg">
<g clip-path="url(#clip0_236_182)">
<rect width="300" height="300" fill="#293AEA"/>
<path d="M69.0943 150C69.0943 125.618 78.7802 102.234 96.0212 84.9931C113.262 67.7521 136.646 58.0663 161.028 58.0663V31.9343C95.8182 31.9343 42.9624 84.8279 42.9624 150C42.9624 215.173 95.8182 268.066 161.028 268.066V241.934C136.646 241.934 113.262 232.248 96.0212 215.007C78.7802 197.767 69.0943 174.383 69.0943 150ZM161.028 182.744C154.552 182.744 148.222 180.824 142.837 177.226C137.452 173.628 133.255 168.514 130.777 162.531C128.299 156.548 127.65 149.964 128.914 143.612C130.177 137.261 133.296 131.426 137.875 126.847C142.454 122.268 148.289 119.149 154.64 117.886C160.992 116.622 167.576 117.271 173.559 119.749C179.542 122.227 184.656 126.424 188.254 131.809C191.852 137.194 193.772 143.524 193.772 150H219.904C219.904 138.356 216.451 126.973 209.982 117.291C203.512 107.609 194.317 100.063 183.559 95.6064C172.801 91.1502 160.963 89.9843 149.542 92.256C138.122 94.5277 127.631 100.135 119.397 108.369C111.163 116.603 105.556 127.094 103.284 138.514C101.012 149.935 102.178 161.773 106.634 172.531C111.091 183.289 118.637 192.484 128.319 198.954C138.001 205.423 149.384 208.876 161.028 208.876V182.744ZM161.028 58.0663V84.1982C178.48 84.1982 195.217 91.1309 207.557 103.471C219.898 115.811 226.83 132.548 226.83 150C226.83 167.452 219.898 184.189 207.557 196.529C195.217 208.87 178.48 215.802 161.028 215.802V241.934C185.411 241.934 208.795 232.248 226.036 215.007C243.277 197.767 252.962 174.383 252.962 150C252.962 125.618 243.277 102.234 226.036 84.9931C208.795 67.7521 185.411 58.0663 161.028 58.0663ZM161.028 124.183C155.922 124.183 150.931 125.697 146.685 128.534C142.44 131.371 139.131 135.403 137.176 140.121C135.222 144.838 134.711 150.029 135.707 155.037C136.704 160.045 139.162 164.645 142.773 168.256C146.384 171.866 150.984 174.325 155.992 175.321C161 176.317 166.191 175.806 170.908 173.852C175.626 171.898 179.658 168.589 182.494 164.344C185.331 160.098 186.845 155.106 186.845 150C186.845 143.153 184.125 136.587 179.284 131.745C174.442 126.903 167.875 124.183 161.028 124.183Z" fill="white"/>
</g>
<defs>
<clipPath id="clip0_236_182">
<rect width="300" height="300" rx="112.5" fill="white"/>
</clipPath>
</defs>
</svg>
